<svg width="397" height="171" viewBox="0 0 397 171" fill="none" xmlns="http://www.w3.org/2000/svg">
<path d="M17.2695 65H1.88867V1.01562H17.2695V65ZM81.4297 65H66.0928L43.417 25.1855V65H27.9922V1.01562H43.417L66.0488 40.8301V1.01562H81.4297V65ZM140.097 12.9248H120.893V65H105.468V12.9248H86.6152V1.01562H140.097V12.9248ZM186.327 37.8857H162.069V53.1348H190.722V65H146.645V1.01562H190.81V12.9248H162.069V26.416H186.327V37.8857ZM220.78 42.4121H212.431V65H197.006V1.01562H222.187C229.774 1.01562 235.707 2.7002 239.984 6.06934C244.262 9.43848 246.4 14.1992 246.4 20.3516C246.4 24.8047 245.492 28.4961 243.676 31.4258C241.889 34.3555 239.076 36.7285 235.238 38.5449L248.598 64.3408V65H232.074L220.78 42.4121ZM212.431 30.5029H222.187C225.116 30.5029 227.313 29.7412 228.778 28.2178C230.272 26.665 231.02 24.5117 231.02 21.7578C231.02 19.0039 230.272 16.8506 228.778 15.2979C227.284 13.7158 225.087 12.9248 222.187 12.9248H212.431V30.5029ZM272.152 65H256.771V1.01562H272.152V65ZM337.06 34.3262C337.06 40.5664 335.902 46.0889 333.588 50.8936C331.273 55.6982 327.978 59.4043 323.7 62.0117C319.452 64.5898 314.604 65.8789 309.154 65.8789C303.705 65.8789 298.871 64.6338 294.652 62.1436C290.434 59.624 287.138 56.0352 284.765 51.377C282.421 46.7188 281.19 41.3721 281.073 35.3369V31.7334C281.073 25.4639 282.216 19.9414 284.501 15.166C286.815 10.3613 290.111 6.65527 294.389 4.04785C298.695 1.44043 303.588 0.136719 309.066 0.136719C314.486 0.136719 319.32 1.42578 323.568 4.00391C327.816 6.58203 331.112 10.2588 333.456 15.0342C335.829 19.7803 337.03 25.2295 337.06 31.3818V34.3262ZM321.371 31.6455C321.371 25.2881 320.302 20.4688 318.163 17.1875C316.054 13.877 313.021 12.2217 309.066 12.2217C301.332 12.2217 297.245 18.0225 296.806 29.624L296.762 34.3262C296.762 40.5957 297.802 45.415 299.882 48.7842C301.962 52.1533 305.053 53.8379 309.154 53.8379C313.051 53.8379 316.054 52.1826 318.163 48.8721C320.272 45.5615 321.342 40.8008 321.371 34.5898V31.6455ZM368.788 42.4121H360.438V65H345.014V1.01562H370.194C377.782 1.01562 383.715 2.7002 387.992 6.06934C392.27 9.43848 394.408 14.1992 394.408 20.3516C394.408 24.8047 393.5 28.4961 391.684 31.4258C389.896 34.3555 387.084 36.7285 383.246 38.5449L396.605 64.3408V65H380.082L368.788 42.4121ZM360.438 30.5029H370.194C373.124 30.5029 375.321 29.7412 376.786 28.2178C378.28 26.665 379.027 24.5117 379.027 21.7578C379.027 19.0039 378.28 16.8506 376.786 15.2979C375.292 13.7158 373.095 12.9248 370.194 12.9248H360.438V30.5029ZM0.833984 170V106.016H21.4443C27.0986 106.016 32.1816 107.305 36.6934 109.883C41.2051 112.432 44.7207 116.05 47.2402 120.737C49.7891 125.396 51.0781 130.625 51.1074 136.426V139.37C51.1074 145.229 49.8623 150.488 47.3721 155.146C44.9111 159.775 41.4248 163.408 36.9131 166.045C32.4307 168.652 27.4209 169.971 21.8838 170H0.833984ZM16.2588 117.925V158.135H21.6201C26.0439 158.135 29.4424 156.567 31.8154 153.433C34.1885 150.269 35.375 145.581 35.375 139.37V136.602C35.375 130.42 34.1885 125.762 31.8154 122.627C29.4424 119.492 25.9854 117.925 21.4443 117.925H16.2588ZM98.7002 142.886H74.4424V158.135H103.095V170H59.0176V106.016H103.183V117.925H74.4424V131.416H98.7002V142.886ZM142.382 152.993C142.382 150.737 141.576 148.979 139.965 147.72C138.383 146.46 135.585 145.156 131.571 143.809C127.558 142.461 124.276 141.157 121.728 139.897C113.437 135.825 109.291 130.229 109.291 123.11C109.291 119.565 110.316 116.445 112.367 113.75C114.447 111.025 117.377 108.916 121.156 107.422C124.936 105.898 129.184 105.137 133.9 105.137C138.5 105.137 142.616 105.957 146.249 107.598C149.911 109.238 152.753 111.582 154.774 114.629C156.796 117.646 157.807 121.104 157.807 125H142.426C142.426 122.393 141.62 120.371 140.009 118.936C138.427 117.5 136.273 116.782 133.549 116.782C130.795 116.782 128.612 117.397 127.001 118.628C125.419 119.829 124.628 121.367 124.628 123.242C124.628 124.883 125.507 126.377 127.265 127.725C129.022 129.043 132.113 130.42 136.537 131.855C140.961 133.262 144.594 134.785 147.436 136.426C154.35 140.41 157.807 145.903 157.807 152.905C157.807 158.501 155.697 162.896 151.479 166.089C147.26 169.282 141.474 170.879 134.12 170.879C128.935 170.879 124.232 169.956 120.014 168.11C115.824 166.235 112.66 163.687 110.521 160.464C108.412 157.212 107.357 153.477 107.357 149.258H122.826C122.826 152.686 123.705 155.22 125.463 156.86C127.25 158.472 130.136 159.277 134.12 159.277C136.669 159.277 138.676 158.735 140.141 157.651C141.635 156.538 142.382 154.985 142.382 152.993ZM182.152 170H166.771V106.016H182.152V170ZM245.258 162.09C242.885 164.727 239.413 166.851 234.843 168.462C230.272 170.073 225.263 170.879 219.813 170.879C211.435 170.879 204.74 168.315 199.73 163.188C194.721 158.062 192.04 150.928 191.688 141.787L191.645 136.25C191.645 129.951 192.758 124.458 194.984 119.771C197.211 115.054 200.39 111.436 204.521 108.916C208.681 106.367 213.485 105.093 218.935 105.093C226.903 105.093 233.085 106.924 237.479 110.586C241.903 114.219 244.481 119.653 245.214 126.89H230.36C229.833 123.315 228.69 120.767 226.933 119.243C225.175 117.72 222.685 116.958 219.462 116.958C215.595 116.958 212.606 118.599 210.497 121.88C208.388 125.161 207.318 129.849 207.289 135.942V139.81C207.289 146.196 208.373 151.001 210.541 154.224C212.738 157.417 216.181 159.014 220.868 159.014C224.882 159.014 227.87 158.12 229.833 156.333V146.401H219.11V135.811H245.258V162.09ZM307.66 170H292.323L269.647 130.186V170H254.223V106.016H269.647L292.279 145.83V106.016H307.66V170Z" fill="url(#paint0_linear_222_39)" fill-opacity="0.45"/>
<defs>
<linearGradient id="paint0_linear_222_39" x1="-41.4669" y1="-262" x2="256.715" y2="112.025" gradientUnits="userSpaceOnUse">
<stop stop-color="#555050"/>
<stop offset="0.983598" stop-color="#DED36D" stop-opacity="0"/>
</linearGradient>
</defs>
</svg>
